<?xml version="1.0" encoding="utf-8"?>
<!-- Generator: Adobe Illustrator 26.3.1, SVG Export Plug-In . SVG Version: 6.00 Build 0)  -->
<svg version="1.1" id="Calque_1" xmlns="http://www.w3.org/2000/svg" xmlns:xlink="http://www.w3.org/1999/xlink" x="0px" y="0px"
	 viewBox="0 0 595.28 491" style="enable-background:new 0 0 595.28 491;" xml:space="preserve">
<g>
	<path d="M392.67,42.3c7.67,2.19,14.6,5.72,17.8,13.42c1.78,4.29,2.85,9.2,2.87,13.83c0.22,45.64,0.15,91.28,0.15,136.92
		c0,72.25-0.02,144.5-0.03,216.76c0,18.05-9.84,27.94-27.81,27.94c-58.69,0-117.38,0-176.07,0c-17.96,0-27.8-9.89-27.8-27.94
		c0-116.96,0-233.92,0-350.88c0-17.69,4.32-23.93,20.79-30.05C265.94,42.3,329.3,42.3,392.67,42.3z M399.62,369.24
		c0-90.96,0-181.53,0-272.18c-68.16,0-136.08,0-204,0c0,90.86,0,181.42,0,272.18C263.67,369.24,331.5,369.24,399.62,369.24z
		 M195.38,383.25c0,14.3-0.03,28.12,0.01,41.95c0.03,7.94,4.42,12.35,12.39,12.35c59.9,0.02,119.79,0.02,179.69,0
		c7.96,0,12.34-4.42,12.37-12.37c0.04-12.91,0.02-25.82,0-38.73c0-1.02-0.16-2.05-0.25-3.21
		C331.53,383.25,263.7,383.25,195.38,383.25z M195.43,82.82c68.4,0,136.31,0,204.43,0c0-4.54,0-8.78,0-13.02
		c-0.01-10.01-3.93-13.89-14.06-13.89c-58.81,0-117.62,0-176.42,0c-1.33,0-2.67-0.06-3.99,0.1c-5.46,0.62-9.66,4.8-9.9,10.28
		C195.24,71.71,195.43,77.15,195.43,82.82z"/>
	<path d="M297.41,430.54c-3.19,0-6.39,0.18-9.56-0.04c-9.43-0.65-16.71-7.91-17.37-17.13c-0.87-12.32,4.56-21.52,14.85-22.81
		c8.08-1.02,16.5-1.02,24.58,0c10.29,1.3,15.71,10.5,14.83,22.83c-0.66,9.22-7.94,16.48-17.38,17.12
		C304.06,430.72,300.73,430.54,297.41,430.54z M297.78,417.02c2.65,0,5.3,0.06,7.94-0.02c3.5-0.11,5.27-2.01,5.5-5.48
		c0.31-4.84-0.99-7.61-4.64-7.84c-5.93-0.37-11.91-0.37-17.84-0.02c-3.69,0.22-5.01,2.93-4.72,7.78c0.2,3.46,1.9,5.44,5.42,5.55
		C292.21,417.08,295,417.01,297.78,417.02z"/>
	<path d="M297.81,62.79c10.25,0,20.49-0.01,30.74,0.01c1.59,0,3.23-0.04,4.76,0.32c3.04,0.72,4.8,2.81,5.02,5.94
		c0.23,3.31-1.32,5.71-4.46,6.74c-1.6,0.52-3.4,0.6-5.11,0.61c-20.76,0.04-41.52,0.03-62.28,0.01c-1.32,0-2.67-0.06-3.96-0.32
		c-3.75-0.75-5.99-3.5-5.63-7.03c0.37-3.66,2.5-5.92,6.19-6.11c4.65-0.24,9.31-0.16,13.96-0.17
		C283.97,62.77,290.89,62.79,297.81,62.79z"/>
	<path d="M375.05,62.79c7.87,0.01,11.25,2.33,11.13,6.92c-0.11,4.45-3.45,6.73-9.91,6.71c-1.58-0.01-3.19-0.08-4.75-0.34
		c-3.7-0.62-5.5-3.07-5.6-6.66c-0.09-3.47,2.51-6.06,6.25-6.49C373.48,62.78,374.82,62.8,375.05,62.79z"/>
</g>
</svg>
