<?xml version="1.0" encoding="utf-8"?>
<!-- Generator: Adobe Illustrator 26.3.1, SVG Export Plug-In . SVG Version: 6.00 Build 0)  -->
<svg version="1.1" id="Calque_1" xmlns="http://www.w3.org/2000/svg" xmlns:xlink="http://www.w3.org/1999/xlink" x="0px" y="0px"
	 viewBox="0 0 595.28 420.94" style="enable-background:new 0 0 595.28 420.94;" xml:space="preserve">
<path d="M387.99,330.12c13.32,13.32,25.84,25.88,38.43,38.39c3.7,3.67,6.14,7.85,6.22,13.18c0.11,7.61-3.18,13.36-9.97,16.68
	c-6.92,3.39-13.68,2.55-19.58-2.45c-3.42-2.9-6.47-6.25-9.65-9.44c-17.86-17.86-35.74-35.69-53.52-53.63
	c-2.02-2.04-4.04-2.79-6.87-2.79c-71.01,0.07-142.02,0.06-213.02,0.05c-15.26,0-23.63-8.38-23.63-23.65c0-80.27,0-160.55,0-240.82
	c0-15.27,8.37-23.63,23.64-23.63c108.26,0,216.52,0,324.79,0c15.27,0,23.64,8.37,23.64,23.63c0,80.27,0,160.55,0,240.82
	c0,15.25-8.39,23.64-23.64,23.64c-17.38,0-34.75,0-52.13,0C391.47,330.12,390.25,330.12,387.99,330.12z M144.67,78.2
	c0,72.11,0,143.91,0,215.58c52.01,0,103.75,0,156.16,0c-11.38-11.36-22.3-22.18-33.09-33.12c-1.42-1.44-2.7-3.39-3.17-5.31
	c-1.5-6.18-2.67-12.45-3.82-18.71c-1.19-6.52,1.98-9.6,8.47-8.33c5.76,1.13,11.56,2.1,17.22,3.59c2.51,0.66,5.17,1.99,7,3.79
	c18.76,18.54,37.4,37.21,55.98,55.93c1.83,1.84,3.63,2.56,6.21,2.55c20.25-0.1,40.5-0.06,60.75-0.06c1.31,0,2.62,0,3.87,0
	c0-72.31,0-144.02,0-215.91C328.34,78.2,236.64,78.2,144.67,78.2z M365.06,306.11c-0.17,0.31-0.35,0.63-0.52,0.94
	c3.14,3.01,6.17,6.16,9.48,8.97c1.28,1.09,3.19,1.99,4.83,2c22.38,0.13,44.76,0.1,67.14,0.08c7.07-0.01,10.46-3.49,10.46-10.7
	c0.01-80.9,0.01-161.8,0-242.71c0-7.19-3.41-10.66-10.5-10.66c-109.02-0.01-218.03-0.01-327.05,0c-7.1,0-10.5,3.46-10.5,10.66
	c-0.01,80.9-0.01,161.8,0,242.71c0,7.35,3.4,10.71,10.83,10.71c67.26,0.01,134.52,0.01,201.78,0c1.05,0,2.1-0.13,3.15-0.21
	c0.17-0.29,0.34-0.57,0.51-0.86c-3-2.79-6.13-5.45-8.96-8.41c-1.78-1.87-3.62-2.58-6.21-2.58c-56.01,0.07-112.02,0.06-168.03,0.06
	c-7.46,0-9.08-1.59-9.08-8.93c0-74.02,0-148.05,0-222.07c0-7.47,1.57-9.07,8.93-9.07c94.02,0,188.03,0,282.05,0
	c7.46,0,9.08,1.59,9.08,8.93c0,58.39,0,116.79,0,175.18c0,16.13,0.01,32.26-0.01,48.39c-0.01,5.42-2.1,7.53-7.43,7.57
	c-5.38,0.04-10.75,0.01-16.13,0.01C394.28,306.11,379.67,306.11,365.06,306.11z M335.32,309.92c20.9,20.9,42.04,42.04,62.53,62.52
	c2.49-2.15,5.37-4.64,7.94-6.87c-21.14-21.2-42.12-42.23-63.21-63.37C340.06,304.89,337.43,307.69,335.32,309.92z M333.4,293.93
	c-9.98-10.01-19.7-19.77-29.32-29.43c-2.37,2.26-5.07,4.83-7.36,7.01c9.84,9.94,19.61,19.79,29.34,29.61
	C328.54,298.69,331.2,296.09,333.4,293.93z M286.82,262.77c3.21-2.84,6.05-5.35,8.93-7.9c-6.18-6.04-11.03-13.97-21.15-12.79
	C273.34,252.47,281.5,257.14,286.82,262.77z M406.43,382.49c3.06,2.57,4.94,7.07,9.77,5.52c1.82-0.58,3.89-2.92,4.32-4.8
	c1.04-4.57-3.12-6.37-5.45-9.02C412.03,377.11,409.37,379.67,406.43,382.49z"/>
<path d="M356.8,147.27c-0.69,8.07-2.47,15.54-6.06,22.54c-5.65,11.02-15.73,14.84-27,9.68c-4.7-2.15-8.98-5.37-13.19-8.45
	c-10.45-7.63-21.81-10.16-34.33-6.66c-2.5,0.7-4.95,1.78-7.2,3.07c-8.8,5.03-12.05,11.98-10.34,21.98
	c0.93,5.41,2.08,10.78,3.11,16.18c0.23,1.22,0.51,2.46,0.58,3.7c0.18,3.43-1.75,6.04-4.94,6.44c-3.27,0.41-5.92-1.01-6.53-4.25
	c-1.73-9.18-3.91-18.38-4.43-27.66c-0.69-12.36,6.24-21.2,16.66-26.81c17.6-9.47,35.04-8.15,51.81,2.52
	c3.89,2.48,7.43,5.52,11.37,7.89c7.05,4.24,11.32,2.76,14.52-4.71c3.56-8.33,4.2-16.88,1.73-25.63c-0.31-1.08-0.69-2.15-0.85-3.25
	c-0.48-3.3,1.32-6.24,4.37-6.88c3.23-0.68,6,0.47,6.91,3.64C354.54,136.08,355.56,141.71,356.8,147.27z"/>
<path d="M126.4,192.09c0,5.63,0.04,11.25-0.01,16.88c-0.04,4.39-2.38,7.1-6.01,7.08c-3.63-0.01-5.95-2.71-5.96-7.12
	c-0.04-11.25-0.04-22.5,0-33.75c0.02-4.41,2.36-7.09,6-7.08c3.63,0.01,5.94,2.7,5.97,7.12C126.43,180.84,126.4,186.46,126.4,192.09z
	"/>
<path d="M450.44,186.17c0,2,0.11,4.01-0.03,6c-0.24,3.53-2.8,5.94-6.06,5.88c-3.11-0.06-5.67-2.37-5.82-5.7
	c-0.18-4.12-0.18-8.25-0.01-12.37c0.14-3.54,2.76-5.93,6.04-5.87c3.26,0.06,5.67,2.48,5.87,6.07
	C450.53,182.16,450.44,184.17,450.44,186.17z"/>
</svg>
