<?xml version="1.0" encoding="utf-8"?>
<!-- Generator: Adobe Illustrator 26.3.1, SVG Export Plug-In . SVG Version: 6.00 Build 0)  -->
<svg version="1.1" id="Calque_1" xmlns="http://www.w3.org/2000/svg" xmlns:xlink="http://www.w3.org/1999/xlink" x="0px" y="0px"
	 viewBox="0 0 595.28 461.3" style="enable-background:new 0 0 595.28 461.3;" xml:space="preserve">
<g>
	<path d="M208.02,221.88c-3.6,0-7.35,0.07-11.09-0.01c-11.6-0.26-20.58-9.22-20.77-20.8c-0.11-6.99,0.17-13.98-0.07-20.96
		c-0.32-9.07,2.66-16.37,10.55-21.37c-8.37-15.11-4.54-29.16,4.32-42.13c9.35-13.69,22.94-20.19,39.58-20.58
		c8.98-0.21,17.47,0.85,24.91,7.15c0.54-1.07,0.99-1.88,1.37-2.72c6.62-14.49,17.92-21.84,33.84-22.38
		c13.79-0.46,27.27,0.82,39.64,7.51c23.69,12.81,36.38,32.72,37.71,59.6c0.19,3.86-0.99,7.8-1.58,12.02
		c6.43,2.71,11.27,7.51,13.21,15.54c-3.93,0.8-7.63,1.54-11.21,2.27c-3.55-5.8-6.86-7.78-11.13-6.85c-4.58,1-6.48,3.91-7.51,11.61
		c-3.68,0-7.39,0-11.89,0c0.48-3.82,0.95-7.53,1.46-11.64c-1.02-0.05-2.31-0.16-3.6-0.16c-13.5-0.01-27.01-0.31-40.5,0.08
		c-13.27,0.39-24.66-3.15-33.33-13.68c-0.44,0.23-0.86,0.32-1.04,0.57c-6.81,9.33-16.07,13.41-27.53,13.05
		c-5.49-0.17-10.98-0.03-16.55-0.03c0.56,3.94,1.08,7.67,1.66,11.73c-4.32,0-8.12,0-12.18,0c-0.08-1.21-0.09-2.42-0.23-3.62
		c-0.55-4.61-4.33-8.04-8.84-8.09c-4.67-0.05-8.84,3.5-8.97,8.29c-0.23,8.48-0.21,16.97,0.01,25.45c0.11,4.17,3.49,7.6,7.63,8
		c3.31,0.32,6.67,0.06,10.23,0.06c0-3.97,0-7.67,0-11.62c4.01,0,7.8,0,12.04,0c-0.78,15.17,2.64,29.18,11.87,41.46
		c9.24,12.29,21.49,19.87,37.11,23.23c-0.67,3.8-1.32,7.5-2.07,11.73c-3.73-0.9-7.17-1.73-10.92-2.64c0,3.87-0.06,7.47,0.06,11.07
		c0.02,0.7,0.59,1.66,1.2,2.03c6.68,4.1,13.41,8.1,21.2,12.78c-1.2-14.05,9.71-19.87,17.18-28.3c-0.6-0.5-1.12-0.93-1.63-1.38
		c-5.86-5.05-7.58-12.3-4.2-19.27c4.84-9.98,9.78-19.92,14.93-29.75c5.04-9.64,14.96-14.32,25.77-12.38
		c6.88,1.23,13.76,2.51,20.57,4.06c2.31,0.53,3.63-0.08,5.19-1.65c18.78-18.84,37.64-37.61,56.44-56.43
		c7.22-7.22,15.68-9.71,25.34-6.22c15.6,5.63,19.92,25.29,8.25,37.52c-7.32,7.68-14.98,15.04-22.5,22.54
		c-9.46,9.44-18.92,18.86-28.5,28.41c28.26,36.61,59.05,70.71,93.14,102.1c-3.22,3.01-5.94,5.54-8.77,8.18
		c-33.67-30.82-64.32-64.88-92.2-100.8c-4.67,4.66-9.03,9.02-13.05,13.03c5.18-0.62,8.02,4.4,11.7,7.99
		c8.03,7.84,15.92,15.82,24.03,23.9c-3.04,2.81-5.83,5.4-8.87,8.22c-8.02-8.02-16.31-16.14-24.36-24.47
		c-2.35-2.43-4.69-3.45-8.11-3.41c-17.24,0.18-34.48,0.08-51.73,0.08c0.65,10.31,10.92,21.12,22.55,23.11
		c5.49,0.94,11.19,0.68,16.8,0.83c5.4,0.15,7.36,1.99,7.6,7.45c0.99,22.15,18.27,39.39,40.41,40.55c2.17,0.11,4.92,0.94,6.3,2.45
		c19.9,21.57,39.61,43.3,59.7,65.37c-2.9,2.62-5.71,5.17-8.7,7.88c-0.78-0.72-1.53-1.32-2.18-2.03
		c-18-19.76-35.96-39.55-54.03-59.23c-1.21-1.31-3.18-2.43-4.93-2.66c-15.78-2.1-28.56-9.23-38.23-21.94
		c-0.75-0.98-2.39-1.74-3.66-1.79c-4.74-0.21-9.5-0.09-14.25-0.08c-8.55,0.02-15.86-2.99-21.94-8.96c-2.12-2.08-4.12-4.27-5.28-5.48
		c-4.9,1.43-8.71,2.76-12.61,3.62c-7.43,1.64-14.92,3.04-22.39,4.51c-5.58,1.09-8.91-2.31-8.01-7.89c0.32-2,0.02-4.1,0-6.16
		c-1.61,1.16-3.39,2.15-4.8,3.51c-4.59,4.42-9.04,8.98-13.55,13.47c-4.6,4.57-7.16,4.6-11.68,0.11c-5.93-5.9-11.9-11.77-17.73-17.77
		c-1.51-1.56-2.81-1.92-4.87-1.17c-5.51,2.01-11.13,3.69-16.65,5.66c-18.04,6.42-31.73,18.04-41.21,34.64
		c-0.55,0.96-1.12,1.9-1.8,3.06c-3.47-1.73-6.79-3.38-10.58-5.27c0.88-1.65,1.63-3.16,2.48-4.61
		c11.33-19.31,27.56-32.72,48.87-39.68c13.31-4.35,26.39-9.13,38.72-15.83c1.92-1.04,2.7-2.12,2.62-4.31
		c-0.17-4.49,1.24-9.56-0.43-13.31c-1.59-3.58-6.27-5.79-9.6-8.59c-10.9-9.15-18.47-20.52-22.8-34.05
		c-0.27-0.83-0.51-1.67-0.79-2.49C208.49,222.49,208.3,222.3,208.02,221.88z M317.69,155.98c9.24,0,18.49,0.02,27.73-0.01
		c7.49-0.02,11.13-3.61,10.65-11.16c-1.39-21.92-11.87-38.16-31.23-48.6c-10.95-5.9-22.87-6.51-34.97-6.16
		c-13.12,0.38-23.45,10.56-23.7,23.65c-0.11,5.74-0.05,11.47-0.02,17.21c0.07,14.74,10.25,24.98,24.93,25.05
		C299.95,156.02,308.82,155.98,317.69,155.98z M221.22,155.98c0,0,0-0.01,0-0.01c5.12,0,10.25,0.12,15.37-0.03
		c9.65-0.27,17.23-7.85,17.52-17.48c0.13-4.36,0.14-8.73-0.01-13.1c-0.27-8.06-5.72-14.98-13.67-16.62
		c-3.97-0.82-8.19-0.76-12.28-0.58c-18.45,0.78-33.67,16.49-33.97,34.88c-0.12,7.55,4.9,12.81,12.43,12.93
		C211.48,156.04,216.35,155.98,221.22,155.98z M323.71,257.83c8.82,0,17.75,0.13,26.68-0.1c1.86-0.05,4.14-0.94,5.45-2.23
		c14.51-14.26,28.86-28.67,43.25-43.04c0.77-0.77,1.48-1.61,1.7-1.85c-5.24-5.2-10.3-10.23-14.94-14.84
		C365.46,216.13,344.67,236.9,323.71,257.83z M341.6,221.47c-5.96-1.14-11.38-2.51-16.89-3.12c-4.52-0.51-8.52,1.5-10.68,5.58
		c-5.24,9.91-10.21,19.96-15.16,30.01c-1.32,2.69-0.24,5.27,2.37,5.48c1.46,0.12,3.41-0.72,4.49-1.79
		c11.4-11.19,22.66-22.51,33.95-33.8C340.27,223.24,340.73,222.56,341.6,221.47z M315.24,295.46c-3.98-6.12-7.91-12.17-12.1-18.61
		c-2.75,2.89-5.45,6.41-8.8,9.13c-7.82,6.35-5.72,15.67-8.52,23.77C298.05,308.47,309.18,306.59,315.24,295.46z M428.46,183.05
		c2.73-2.75,5.73-5.39,8.26-8.42c3.54-4.23,3.04-10.4-0.78-14.32c-3.74-3.84-10.1-4.47-14.34-1.03c-3.15,2.56-5.93,5.58-8.73,8.25
		C418.23,172.86,423.16,177.77,428.46,183.05z M350.46,306.71c-7.07-1.15-13.71-1.67-19.98-3.48c-3.79-1.1-5.76-0.63-7.22,2.29
		c7.01,11.38,17.43,13.86,29.61,11.81C352.03,313.64,351.18,309.91,350.46,306.71z M418.89,192.42
		c-5.21-5.22-10.18-10.2-14.64-14.67c-2.79,2.69-5.86,5.66-8.44,8.15c4.81,4.79,9.79,9.76,14.8,14.75
		C413.29,197.99,416.26,195.04,418.89,192.42z M260.42,302.14c-3.61-2.17-7.42-4.5-11.28-6.75c-0.56-0.33-1.51-0.53-2.03-0.28
		c-4.2,1.98-8.33,4.09-12.13,5.98c4.68,4.68,9.05,9.07,13.24,13.26C252.11,310.45,256.21,306.34,260.42,302.14z"/>
	<path d="M416.01,395.8c4.24,0,7.94,0,12.07,0c0,6.24,0.18,12.44-0.08,18.61c-0.12,2.9-2.26,4.66-5.17,5.1
		c-1.35,0.2-2.74,0.09-4.12,0.09c-93.74,0-187.48,0-281.22,0c-7.89,0-9.35-1.47-9.35-9.39c0-113.56,0-227.13,0-340.69
		c0-7.94,1.45-9.4,9.33-9.4c93.86,0,187.73,0,281.59,0c7.47,0,9.09,1.59,9.09,8.9c0,19.59,0,39.19,0,58.78c0,1.23,0,2.47,0,3.96
		c-3.99,0-7.78,0-11.85,0c0-19.71,0-39.38,0-59.35c-92.06,0-183.84,0-275.9,0c0,111.5,0,223.11,0,334.97c91.76,0,183.54,0,275.61,0
		C416.01,403.62,416.01,399.92,416.01,395.8z"/>
	<path d="M284.15,192.04c0,12.03,0,23.62,0,35.2c0,1.62,0.01,3.24,0,4.87c-0.04,4.97-2.28,7.8-6.12,7.72
		c-3.72-0.08-5.87-2.81-5.87-7.58c-0.02-11.86-0.01-23.71-0.01-35.57c0-1.36,0-2.72,0-4.86c-7.02,0.67-13.81,1.08-20.52,2.03
		c-6.42,0.9-12.77,2.31-19.13,3.57c-4.22,0.84-7.39-0.77-8.2-4.32c-0.77-3.32,1.27-6.52,5.32-7.18c12.92-2.08,25.89-3.87,38.85-5.76
		c1.09-0.16,2.2-0.19,3.45-0.29c0.75-4.75-1.46-11.78,6.33-11.69c7.48,0.09,5.5,6.82,5.99,11.33c9.6,1.15,19.01,2.14,28.37,3.45
		c4.81,0.67,9.57,1.79,14.29,2.94c3.94,0.96,5.95,4.12,5.05,7.41c-0.92,3.38-4.03,5.04-8.01,4.1
		C311.03,194.38,297.97,192.52,284.15,192.04z"/>
</g>
</svg>
